# xmcd
#
# Track frame offsets:
#	150
#	17653
#	35040
#	49773
#	67638
#	84650
#	95665
#	110235
#	124890
#	141400
#	156147
#	172313
#	187496
#	202895
#
# Disc length: 2932 seconds
#
# Revision: 3
# Processed by: cddbd v1.5.2PL0 Copyright (c) Steve Scherf et al.
# Submitted via: audiograbber 1.83.01
#
DISCID=d20b720e
DTITLE=Various Artist - Nu Country Traxx 001
DYEAR=1999
DGENRE=Country
TTITLE0=Charlee Tennison - Someone Else's Turn To Cry
TTITLE1=Alan Jackson - Gone Crazy
TTITLE2=T Graham Brown - Happy Ever After
TTITLE3=Tractors - I Wouldn't Tell You No Lie
TTITLE4=Brad Paisley - Who Needs Pictures
TTITLE5=John Michael Montgomery - Hello L O V E
TTITLE6=Great Divide - San Isabella
TTITLE7=Neal Mccoy - I Was
TTITLE8=South Sixy Five - No Easy Goodbye
TTITLE9=Confederate Railroad - Cowboy Cadillac
TTITLE10=Julie Reeves - It's About Time
TTITLE11=Shedaisy - Little Goodbyes
TTITLE12=Aaron Tippin - I'm Leaving
TTITLE13=Lari White - John Wayne Walking Away
EXTD=
EXTT0=
EXTT1=
EXTT2=
EXTT3=
EXTT4=
EXTT5=
EXTT6=
EXTT7=
EXTT8=
EXTT9=
EXTT10=
EXTT11=
EXTT12=
EXTT13=
PLAYORDER=
